<?xml version="1.0" encoding="UTF-8" standalone="no"?>
<!-- Created with Inkscape (http://www.inkscape.org/) -->

<svg
   xmlns:dc="http://purl.org/dc/elements/1.1/"
   xmlns:cc="http://creativecommons.org/ns#"
   xmlns:rdf="http://www.w3.org/1999/02/22-rdf-syntax-ns#"
   xmlns:svg="http://www.w3.org/2000/svg"
   xmlns="http://www.w3.org/2000/svg"
   xmlns:sodipodi="http://sodipodi.sourceforge.net/DTD/sodipodi-0.dtd"
   xmlns:inkscape="http://www.inkscape.org/namespaces/inkscape"
   width="900mm"
   height="900mm"
   viewBox="0 0 3188.9763 3188.9763"
   id="svg4137"
   version="1.1"
   inkscape:version="0.91 r13725"
   sodipodi:docname="stopsign.svg">
  <defs
     id="defs4139" />
  <sodipodi:namedview
     id="base"
     pagecolor="#ffffff"
     bordercolor="#666666"
     borderopacity="1.0"
     inkscape:pageopacity="0.0"
     inkscape:pageshadow="2"
     inkscape:zoom="0.0875"
     inkscape:cx="-1079.1901"
     inkscape:cy="139.60288"
     inkscape:document-units="px"
     inkscape:current-layer="layer1"
     showgrid="false"
     showguides="true"
     inkscape:guide-bbox="true"
     inkscape:window-width="1920"
     inkscape:window-height="1016"
     inkscape:window-x="0"
     inkscape:window-y="27"
     inkscape:window-maximized="1">
    <sodipodi:guide
       position="937.42154,432.34528"
       orientation="0,1"
       id="guide4693" />
  </sodipodi:namedview>
  <metadata
     id="metadata4142">
    <rdf:RDF>
      <cc:Work
         rdf:about="">
        <dc:format>image/svg+xml</dc:format>
        <dc:type
           rdf:resource="http://purl.org/dc/dcmitype/StillImage" />
        <dc:title></dc:title>
      </cc:Work>
    </rdf:RDF>
  </metadata>
  <g
     inkscape:label="Layer 1"
     inkscape:groupmode="layer"
     id="layer1"
     transform="translate(0,2136.6141)">
    <path
       sodipodi:type="star"
       style="opacity:1;fill:#fdfdfd;fill-opacity:1;stroke:none;stroke-width:0;stroke-miterlimit:4;stroke-dasharray:none;stroke-opacity:1"
       id="path4689"
       sodipodi:sides="8"
       sodipodi:cx="1042.4774"
       sodipodi:cy="-208.30817"
       sodipodi:r1="903.39948"
       sodipodi:r2="834.63226"
       sodipodi:arg1="0.37552303"
       sodipodi:arg2="0.76822211"
       inkscape:flatsided="true"
       inkscape:rounded="0.005"
       inkscape:randomized="0"
       d="m 1882.9243,123.02187 c -1.2679,3.21625 -477.2761,495.86373 -480.4469,497.24139 -3.1708,1.37766 -688.11377,13.14344 -691.33002,11.87549 -3.21625,-1.26795 -495.86373,-477.27611 -497.24139,-480.44692 -1.37766,-3.1708 -13.14343,-688.11378 -11.87549,-691.33003 1.26795,-3.21625 477.27611,-495.8637 480.44692,-497.2414 3.1708,-1.3777 688.11378,-13.1434 691.33008,-11.8755 3.2162,1.268 495.8637,477.27613 497.2413,480.44693 1.3777,3.17081 13.1435,688.11379 11.8755,691.33004 z"
       transform="matrix(1.8866827,0.03138965,-0.03138965,1.8866827,-378.87464,-181.8375)" />
    <path
       transform="matrix(1.7780229,0.02958183,-0.02958183,1.7780229,-265.22267,-202.58761)"
       d="m 1882.9243,123.02187 c -1.2679,3.21625 -477.2761,495.86373 -480.4469,497.24139 -3.1708,1.37766 -688.11377,13.14344 -691.33002,11.87549 -3.21625,-1.26795 -495.86373,-477.27611 -497.24139,-480.44692 -1.37766,-3.1708 -13.14343,-688.11378 -11.87549,-691.33003 1.26795,-3.21625 477.27611,-495.8637 480.44692,-497.2414 3.1708,-1.3777 688.11378,-13.1434 691.33008,-11.8755 3.2162,1.268 495.8637,477.27613 497.2413,480.44693 1.3777,3.17081 13.1435,688.11379 11.8755,691.33004 z"
       inkscape:randomized="0"
       inkscape:rounded="0.005"
       inkscape:flatsided="true"
       sodipodi:arg2="0.76822211"
       sodipodi:arg1="0.37552303"
       sodipodi:r2="834.63226"
       sodipodi:r1="903.39948"
       sodipodi:cy="-208.30817"
       sodipodi:cx="1042.4774"
       sodipodi:sides="8"
       id="path4695"
       style="opacity:1;fill:#d12c30;fill-opacity:1;stroke:none;stroke-width:0;stroke-miterlimit:4;stroke-dasharray:none;stroke-opacity:1"
       sodipodi:type="star" />
    <text
       xml:space="preserve"
       style="font-style:normal;font-variant:normal;font-weight:bold;font-stretch:normal;font-size:1393.59179688px;line-height:125%;font-family:'Droid Sans';-inkscape-font-specification:'Droid Sans Bold';letter-spacing:0px;word-spacing:0px;fill:#f3f3f3;fill-opacity:1;stroke:none;stroke-width:1px;stroke-linecap:butt;stroke-linejoin:miter;stroke-opacity:1"
       x="205.46393"
       y="37.75045"
       id="text4697"
       sodipodi:linespacing="125%"
       transform="scale(0.8497841,1.1767695)"><tspan
         sodipodi:role="line"
         id="tspan4699"
         x="205.46393"
         y="37.75045">STOP</tspan></text>
  </g>
</svg>
